<?xml version="1.0" encoding="utf-8"?>
<svg version="1.1" xmlns:xlink="http://www.w3.org/1999/xlink" width="20px" height="20px" preserveAspectRatio="xMinYMid meet" viewBox="1039 163  20 18" xmlns="http://www.w3.org/2000/svg">
  <path d="M 615 172  L 615 36.6  A 5 5 0 0 1 620 31.6 L 1044 31.6  A 5 5 0 0 1 1049 36.6 L 1049 172  " stroke-width="2" stroke="#0099cc" fill="none" />
  <path d="M 619.292893218813 166.892893218813  L 615 171.185786437627  L 610.707106781187 166.892893218813  L 609.292893218813 168.307106781187  L 614.292893218813 173.307106781187  L 615 174.014213562373  L 615.707106781187 173.307106781187  L 620.707106781187 168.307106781187  L 619.292893218813 166.892893218813  Z M 1053.29289321881 166.892893218813  L 1049 171.185786437627  L 1044.70710678119 166.892893218813  L 1043.29289321881 168.307106781187  L 1048.29289321881 173.307106781187  L 1049 174.014213562373  L 1049.70710678119 173.307106781187  L 1054.70710678119 168.307106781187  L 1053.29289321881 166.892893218813  Z " fill-rule="nonzero" fill="#0099cc" stroke="none" />
</svg>