<?xml version="1.0" encoding="utf-8"?>
<svg version="1.1" xmlns:xlink="http://www.w3.org/1999/xlink" width="74px" height="32px" xmlns="http://www.w3.org/2000/svg">
  <defs>
    <mask fill="white" id="clip1">
      <path d="M 74 27.4285714285714  L 74 4.57142857142857  C 74 2.01142857142857  71.965 0  69.375 0  L 0 0  L 0 32  L 69.375 32  C 71.965 32  74 29.9885714285714  74 27.4285714285714  Z " fill-rule="evenodd" />
    </mask>
  </defs>
  <g transform="matrix(1 0 0 1 -510 -800 )">
    <path d="M 74 27.4285714285714  L 74 4.57142857142857  C 74 2.01142857142857  71.965 0  69.375 0  L 0 0  L 0 32  L 69.375 32  C 71.965 32  74 29.9885714285714  74 27.4285714285714  Z " fill-rule="nonzero" fill="#ffffff" stroke="none" transform="matrix(1 0 0 1 510 800 )" />
    <path d="M 74 27.4285714285714  L 74 4.57142857142857  C 74 2.01142857142857  71.965 0  69.375 0  L 0 0  L 0 32  L 69.375 32  C 71.965 32  74 29.9885714285714  74 27.4285714285714  Z " stroke-width="2" stroke="#d9d9d9" fill="none" transform="matrix(1 0 0 1 510 800 )" mask="url(#clip1)" />
  </g>
</svg>