<?xml version="1.0" encoding="utf-8"?>
<svg version="1.1" xmlns:xlink="http://www.w3.org/1999/xlink" width="14px" height="14px" xmlns="http://www.w3.org/2000/svg">
  <g transform="matrix(1 0 0 1 -989 -969 )">
    <path d="M 996 970  C 999.36 970  1002 972.64  1002 976  C 1002 979.36  999.36 982  996 982  C 992.64 982  990 979.36  990 976  C 990 972.64  992.64 970  996 970  Z " fill-rule="nonzero" fill="#ffffff" stroke="none" />
    <path d="M 996 970  C 999.36 970  1002 972.64  1002 976  C 1002 979.36  999.36 982  996 982  C 992.64 982  990 979.36  990 976  C 990 972.64  992.64 970  996 970  Z " stroke-width="2" stroke="#108ee9" fill="none" />
  </g>
</svg>