<?xml version="1.0" encoding="utf-8"?>
<svg version="1.1" xmlns:xlink="http://www.w3.org/1999/xlink" width="88px" height="88px" xmlns="http://www.w3.org/2000/svg">
  <g transform="matrix(1 0 0 1 -486 -577 )">
    <path d="M 487 581  A 3 3 0 0 1 490 578 L 570 578  A 3 3 0 0 1 573 581 L 573 661  A 3 3 0 0 1 570 664 L 490 664  A 3 3 0 0 1 487 661 L 487 581  Z " fill-rule="nonzero" fill="#f2f2f2" stroke="none" />
    <path d="M 486.5 581  A 3.5 3.5 0 0 1 490 577.5 L 570 577.5  A 3.5 3.5 0 0 1 573.5 581 L 573.5 661  A 3.5 3.5 0 0 1 570 664.5 L 490 664.5  A 3.5 3.5 0 0 1 486.5 661 L 486.5 581  Z " stroke-width="1" stroke-dasharray="3,1" stroke="#d8d8d8" fill="none" stroke-dashoffset="0.5" />
  </g>
</svg>