<?xml version="1.0" encoding="utf-8"?>
<svg version="1.1" xmlns:xlink="http://www.w3.org/1999/xlink" width="14px" height="14px" xmlns="http://www.w3.org/2000/svg">
  <g transform="matrix(1 0 0 1 -387 -457 )">
    <path d="M 394 457  C 397.92 457  401 460.08  401 464  C 401 467.92  397.92 471  394 471  C 390.08 471  387 467.92  387 464  C 387 460.08  390.08 457  394 457  Z " fill-rule="nonzero" fill="#ffffff" stroke="none" fill-opacity="0" />
    <path d="M 394 457.5  C 397.64 457.5  400.5 460.36  400.5 464  C 400.5 467.64  397.64 470.5  394 470.5  C 390.36 470.5  387.5 467.64  387.5 464  C 387.5 460.36  390.36 457.5  394 457.5  Z " stroke-width="1" stroke="#d9d9d9" fill="none" />
  </g>
</svg>