<?xml version="1.0" encoding="utf-8"?>
<svg version="1.1" xmlns:xlink="http://www.w3.org/1999/xlink" width="32px" height="32px" xmlns="http://www.w3.org/2000/svg">
  <g transform="matrix(1 0 0 1 -934 -148 )">
    <path d="M 950 148  C 958.96 148  966 155.04  966 164  C 966 172.96  958.96 180  950 180  C 941.04 180  934 172.96  934 164  C 934 155.04  941.04 148  950 148  Z " fill-rule="nonzero" fill="#ffffff" stroke="none" />
    <path d="M 950 148.5  C 958.68 148.5  965.5 155.32  965.5 164  C 965.5 172.68  958.68 179.5  950 179.5  C 941.32 179.5  934.5 172.68  934.5 164  C 934.5 155.32  941.32 148.5  950 148.5  Z " stroke-width="1" stroke="#cccccc" fill="none" />
  </g>
</svg>